<svg width="24" height="23" viewBox="0 0 24 23" fill="none" xmlns="http://www.w3.org/2000/svg">
<g clip-path="url(#clip0_878_1015)">
<path d="M23.4437 0L13.1455 7.61991L15.0605 3.12928L23.4437 0Z" fill="#E17726"/>
<path d="M0.580359 0.0090332L8.94108 3.12988L10.7595 7.67938L0.580359 0.0090332ZM19.2993 16.2055L23.851 16.2921L22.2602 21.696L16.7062 20.1669L19.2993 16.2055ZM4.70048 16.2055L7.28395 20.1669L1.7393 21.6961L0.158203 16.2921L4.70048 16.2055Z" fill="#E27625"/>
<path d="M10.5124 6.52052L10.6984 12.5283L5.13232 12.2751L6.71557 9.88652L6.73564 9.86355L10.5124 6.52052ZM13.4301 6.45349L17.2645 9.86374L17.2844 9.88662L18.8676 12.2752L13.3028 12.5283L13.4301 6.45349ZM7.44711 16.2229L10.4863 18.5909L6.95586 20.2954L7.44711 16.2229ZM16.5536 16.2225L17.0346 20.2955L13.514 18.5907L16.5536 16.2225Z" fill="#E27625"/>
<path d="M13.5918 18.3677L17.1644 20.0976L13.8412 21.6769L13.8757 20.6331L13.5918 18.3677ZM10.4074 18.3684L10.1347 20.616L10.1571 21.6756L6.82617 20.0976L10.4074 18.3684Z" fill="#D5BFB2"/>
<path d="M9.3757 13.3124L10.3093 15.2744L7.13086 14.3433L9.3757 13.3124ZM14.6243 13.3126L16.8797 14.3433L13.6909 15.2741L14.6243 13.3126Z" fill="#233447"/>
<path d="M7.68983 16.2028L7.17608 20.4253L4.42236 16.2951L7.68983 16.2028ZM16.3101 16.2029L19.5777 16.2951L16.8137 20.4255L16.3101 16.2029ZM18.9479 12.0363L16.5699 14.4598L14.7365 13.6219L13.8587 15.4673L13.2832 12.294L18.9479 12.0363ZM5.05068 12.0363L10.7165 12.294L10.1409 15.4673L9.26296 13.6222L7.43924 14.4599L5.05068 12.0363Z" fill="#CC6228"/>
<path d="M4.89062 11.5389L7.58106 14.269L7.67425 16.9642L4.89062 11.5389ZM19.1122 11.5341L16.3235 16.969L16.4285 14.269L19.1122 11.5341ZM10.5851 11.7052L10.6934 12.3868L10.9609 14.0847L10.7889 19.2996L9.97562 15.1103L9.97534 15.067L10.5851 11.7052ZM13.4136 11.6958L14.025 15.067L14.0247 15.1103L13.2093 19.3101L13.1771 18.2596L13.0499 14.0538L13.4136 11.6958Z" fill="#E27525"/>
<path d="M16.6677 14.1605L16.5767 16.5022L13.7385 18.7135L13.1647 18.3081L13.8078 14.9955L16.6677 14.1605ZM7.34229 14.1605L10.1922 14.9955L10.8353 18.3081L10.2616 18.7135L7.42329 16.502L7.34229 14.1605Z" fill="#F5841F"/>
<path d="M6.28271 19.5804L9.91384 21.3009L9.89846 20.5662L10.2023 20.2995H13.7961L14.1109 20.5653L14.0877 21.2994L17.6958 19.5848L15.9401 21.0356L13.8171 22.4937H10.1732L8.05159 21.0296L6.28271 19.5804Z" fill="#C0AC9D"/>
<path d="M13.3317 18.1387L13.8451 18.5014L14.1459 20.9018L13.7105 20.5342H10.2909L9.86377 20.9092L10.1548 18.5016L10.6683 18.1387H13.3317Z" fill="#161616"/>
<path d="M22.7638 0.210938L24 3.91941L23.228 7.66913L23.7777 8.09316L23.0338 8.66072L23.5929 9.09253L22.8526 9.76669L23.3071 10.0958L22.1009 11.5045L17.1537 10.0641L17.1109 10.0411L13.5458 7.03378L22.7638 0.210938ZM1.23619 0.210938L10.4543 7.03378L6.88913 10.0411L6.84628 10.0641L1.89909 11.5045L0.692906 10.0958L1.14703 9.76697L0.407156 9.09253L0.965156 8.66119L0.210094 8.09203L0.780563 7.66772L0 3.91959L1.23619 0.210938Z" fill="#763E1A"/>
<path d="M16.9117 9.74906L22.1535 11.2752L23.8565 16.5239H19.3636L16.268 16.5629L18.5193 12.1747L16.9117 9.74906ZM7.08818 9.74906L5.48027 12.1747L7.73186 16.5629L4.63764 16.5239H0.152832L1.84624 11.2753L7.08818 9.74906ZM15.3172 3.10425L13.851 7.06415L13.5399 12.4135L13.4208 14.0902L13.4113 18.3735H10.5884L10.5792 14.0983L10.4598 12.4121L10.1486 7.06415L8.68258 3.10425H15.3172Z" fill="#F5841F"/>
</g>
<defs>
<clipPath id="clip0_878_1015">
<rect width="24" height="22.5" fill="white"/>
</clipPath>
</defs>
</svg>
